<svg xmlns="http://www.w3.org/2000/svg" viewBox="0 0 28.759 32"><g id="Capa_2" data-name="Capa 2"><path d="M.416,16.871C.416,7.231,6.937.3,16.254.3c7.777,0,12.354,4.821,12.354,10.087,0,2.835-1.215,5.468-5.347,5.022-3.4-.364-3.4-3.888-3-6.2l.688-3.848c.324-1.823-.688-3.038-2.551-1.9L5.317,11.4c-1.58.972-1.661,2.431.04,2.917l7.292,2.025c2.876.81,4.05,4.375.648,6.2l-2.228,1.175c-5.671,3,1.418,9.681,5.1,5.387l5.954-6.967c3.16-3.686,7.048-1.539,7.048,1.418,0,3.565-7.089,8.749-14.785,8.749C4.831,32.3.416,25.54.416,16.871Z" transform="translate(-0.416 -0.304)" style="fill:#fff"/></g></svg>